<?xml version="1.0" encoding="utf-8"?>
<!-- Generator: Adobe Illustrator 16.0.0, SVG Export Plug-In . SVG Version: 6.00 Build 0)  -->
<!DOCTYPE svg PUBLIC "-//W3C//DTD SVG 1.1//EN" "http://www.w3.org/Graphics/SVG/1.1/DTD/svg11.dtd">
<svg version="1.1" id="Layer_1" xmlns="http://www.w3.org/2000/svg" xmlns:xlink="http://www.w3.org/1999/xlink" x="0px" y="0px"
	 width="336.5px" height="271px" viewBox="0 653.5 336.5 271" enable-background="new 0 653.5 336.5 271" xml:space="preserve">
<g>
	<path fill="#143877" d="M305.526,808.498l-24.707-22.614c-0.397-0.299-0.895-0.499-1.394-0.598l0,0c0,0,0,0-0.101,0h-0.198h-8.767
		H37.349c-5.977,0-10.958,4.882-10.958,10.958v67.045c0,0.099,0.101,0.199,0.101,0.397c0,0.2,0,0.299,0.099,0.499
		c0.099,0.099,0.2,0.199,0.299,0.397c0.099,0.101,0.099,0.2,0.2,0.299l22.414,25.403c0.896,1.595,2.093,2.89,3.587,3.885
		c0.099,0.101,0.299,0.2,0.398,0.2c1.593,0.896,3.487,1.494,5.479,1.494h240.185c5.977,0,10.958-4.881,10.958-10.958v-67.542
		C310.009,813.678,308.216,810.489,305.526,808.498z M270.36,790.168h7.771l17.732,16.237H58.966c-1.594,0-3.088,0.299-4.382,0.996
		l-19.725-16.636c0.797-0.399,1.593-0.598,2.49-0.598H270.36z M31.372,796.145c0-0.598,0.2-1.096,0.299-1.595l18.828,15.841
		c-1.594,1.892-2.491,4.284-2.491,6.873v63.957l-16.636-18.928V796.145z M305.128,885.005c0,3.288-2.689,5.979-5.977,5.979H58.966
		c-1.295,0-2.391-0.498-3.288-1.096l-2.092-2.392c-0.299-0.797-0.598-1.594-0.598-2.491v-67.641c0-3.289,2.689-5.979,5.977-5.979
		h240.185c3.287,0,5.977,2.689,5.977,5.979V885.005L305.128,885.005z"/>
	<path fill="#143877" d="M246.352,845.855c-1.395,1.395-2.191,3.386-2.191,5.379s0.796,3.885,2.191,5.379
		c1.395,1.396,3.387,2.192,5.379,2.192s3.885-0.797,5.38-2.192c1.394-1.394,2.191-3.386,2.191-5.379s-0.797-3.885-2.191-5.379
		C254.122,842.966,249.142,842.966,246.352,845.855z M253.524,853.027c-0.996,0.996-2.689,0.996-3.686,0
		c-0.499-0.498-0.797-1.195-0.797-1.793c0-0.697,0.299-1.396,0.797-1.793c0.499-0.499,1.195-0.697,1.793-0.697
		c0.697,0,1.396,0.198,1.793,0.697c0.499,0.498,0.797,1.195,0.797,1.793S253.924,852.529,253.524,853.027z"/>
	<path fill="#143877" d="M211.287,841.97c-4.185,0-7.572,3.387-7.572,7.57v3.289c0,4.184,3.387,7.57,7.572,7.57
		c4.184,0,7.57-3.387,7.57-7.57v-3.289C218.857,845.356,215.47,841.97,211.287,841.97z M213.875,852.829
		c0,1.394-1.195,2.589-2.589,2.589c-1.395,0-2.59-1.195-2.59-2.589v-3.289c0-1.394,1.195-2.589,2.59-2.589
		c1.394,0,2.589,1.195,2.589,2.589V852.829z"/>
	<path fill="#143877" d="M180.803,841.97c-4.185,0-7.571,3.387-7.571,7.57v3.289c0,4.184,3.386,7.57,7.571,7.57
		c4.184,0,7.57-3.387,7.57-7.57v-3.289C188.373,845.356,184.987,841.97,180.803,841.97z M183.492,852.829
		c0,1.394-1.195,2.589-2.59,2.589s-2.59-1.195-2.59-2.589v-3.289c0-1.394,1.195-2.589,2.59-2.589s2.59,1.195,2.59,2.589V852.829z"/>
	<path fill="#143877" d="M150.418,841.97c-4.184,0-7.572,3.387-7.572,7.57v3.289c0,4.184,3.388,7.57,7.572,7.57
		c4.184,0,7.57-3.387,7.57-7.57v-3.289C157.989,845.356,154.602,841.97,150.418,841.97z M153.008,852.829
		c0,1.394-1.196,2.589-2.589,2.589c-1.395,0-2.59-1.195-2.59-2.589v-3.289c0-1.394,1.195-2.589,2.59-2.589
		c1.394,0,2.589,1.195,2.589,2.589V852.829z"/>
	<path fill="#143877" d="M76.998,850.039c-0.199,0-2.888-0.499-2.888-0.499c-0.299-0.099-0.399-0.099-0.399-0.299v-0.099
		c0-0.299,0.101-0.299,0.299-0.299h4.384v-2.191c0,0-2.69-0.199-4.283-0.199c-2.491,0-3.388,0.797-3.388,2.489v0.896
		c0,1.795,0.896,1.993,2.889,2.292c0.099,0,2.191,0.398,2.391,0.398c0.199,0,0.199,0.199,0.199,0.3v0.298
		c0,0.399-0.199,0.498-0.797,0.498h-4.482v2.192c0,0,3.188,0.198,4.881,0.198c2.491,0,3.287-0.796,3.287-2.589v-1.097
		C79.089,851.135,78.792,850.438,76.998,850.039z"/>
	<polygon fill="#143877" points="104.493,847.35 104.493,848.644 107.382,848.644 107.382,856.116 109.972,856.116 109.972,848.644 
		113.161,848.644 113.161,846.652 103.895,846.652 	"/>
	<path fill="#143877" d="M100.807,847.25v4.084c0,0-3.188-4.283-3.287-4.483c-0.2-0.198-0.2-0.299-0.797-0.299h-2.292v9.464h2.689
		v-4.682l3.188,4.284c0.299,0.397,0.399,0.397,0.896,0.397h2.292v-9.464h-3.387L100.807,847.25z"/>
	<polygon fill="#143877" points="90.148,847.35 90.148,856.116 93.136,856.116 93.136,846.652 89.649,846.652 	"/>
	<path fill="#143877" d="M85.964,846.652h-4.583l0.499,0.697c-0.598,1.793-2.79,8.767-2.79,8.767h3.089l0.499-1.992h3.187
		l0.499,1.992h3.188c0,0-2.689-8.369-2.889-9.065C86.562,846.652,86.562,846.652,85.964,846.652z M83.374,851.634l0.896-3.289h0.299
		l0.897,3.289H83.374z"/>
</g>
</svg>
